<svg xmlns="http://www.w3.org/2000/svg" viewBox="0 0 100 100"><defs><linearGradient id="frost" x1="0%" y1="0%" x2="100%" y2="100%"><stop offset="0%" stop-color="#e0f2fe"/><stop offset="50%" stop-color="#7dd3fc"/><stop offset="100%" stop-color="#3b82f6"/></linearGradient><filter id="glow"><feGaussianBlur stdDeviation="2" result="coloredBlur"/><feMerge><feMergeNode in="coloredBlur"/><feMergeNode in="SourceGraphic"/></feMerge></filter></defs><g fill="none" stroke="url(#frost)" stroke-width="5" stroke-linecap="round" filter="url(#glow)"><path d="M50 10 L50 90 M10 50 L90 50 M22 22 L78 78 M22 78 L78 22"/><g transform="translate(50,50)"><path d="M0 -30 L5 -20 L-5 -20 Z" fill="url(#frost)" stroke="none" transform="rotate(0)"/><path d="M0 -30 L5 -20 L-5 -20 Z" fill="url(#frost)" stroke="none" transform="rotate(60)"/><path d="M0 -30 L5 -20 L-5 -20 Z" fill="url(#frost)" stroke="none" transform="rotate(120)"/><path d="M0 -30 L5 -20 L-5 -20 Z" fill="url(#frost)" stroke="none" transform="rotate(180)"/><path d="M0 -30 L5 -20 L-5 -20 Z" fill="url(#frost)" stroke="none" transform="rotate(240)"/><path d="M0 -30 L5 -20 L-5 -20 Z" fill="url(#frost)" stroke="none" transform="rotate(300)"/></g></g><circle cx="50" cy="50" r="12" fill="none" stroke="#fff" stroke-width="2" opacity="0.5"/></svg>